<?xml version="1.0" encoding="UTF-8" standalone="no"?>
<svg
   xmlns:dc="http://purl.org/dc/elements/1.1/"
   xmlns:cc="http://creativecommons.org/ns#"
   xmlns:rdf="http://www.w3.org/1999/02/22-rdf-syntax-ns#"
   xmlns:svg="http://www.w3.org/2000/svg"
   xmlns="http://www.w3.org/2000/svg"
   viewBox="0 0 1866.6667 1306.6667"
   height="1306.6667"
   width="1866.6667"
   xml:space="preserve"
   id="svg2"
   version="1.1"><metadata
     id="metadata8"><rdf:RDF><cc:Work
         rdf:about=""><dc:format>image/svg+xml</dc:format><dc:type
           rdf:resource="http://purl.org/dc/dcmitype/StillImage" /></cc:Work></rdf:RDF></metadata><defs
     id="defs6"><clipPath
       id="clipPath20"
       clipPathUnits="userSpaceOnUse"><path
         id="path18"
         d="M 0,980 H 1400 V 0 H 0 Z" /></clipPath></defs><g
     transform="matrix(1.3333333,0,0,-1.3333333,0,1306.6667)"
     id="g10"><path
       id="path12"
       style="fill:#f5e7d9;fill-opacity:1;fill-rule:nonzero;stroke:none"
       d="M 0,0 H 1400 V 980 H 0 Z" /><g
       id="g14"><g
         clip-path="url(#clipPath20)"
         id="g16"><g
           transform="translate(542.7773,359.5887)"
           id="g22"><path
             id="path24"
             style="fill:#ebd0b3;fill-opacity:1;fill-rule:nonzero;stroke:none"
             d="m 0,0 c 0,12.939 8.475,23.843 20.049,27.23 v 6.351 c 0,19.752 -15.171,36.238 -35.366,40.122 l -1.827,50.661 h 4.163 v -2.037 h 2.081 c 1.705,0 3.086,1.382 3.086,3.087 0,1.704 -1.381,3.086 -3.086,3.086 h -2.081 v -2.036 h -4.239 l -0.359,9.958 h 4.598 v -2.036 h 2.081 c 1.705,0 3.086,1.381 3.086,3.086 0,1.705 -1.381,3.086 -3.086,3.086 h -2.081 v -2.036 h -4.674 l -0.269,7.466 h 3.315 l 4.023,20.452 -13.874,10.059 -13.875,-10.059 4.024,-20.452 h 3.314 l -0.269,-7.466 h -4.673 v 2.036 h -2.082 c -1.704,0 -3.086,-1.381 -3.086,-3.086 0,-1.705 1.382,-3.086 3.086,-3.086 h 2.082 v 2.036 h 4.597 l -0.359,-9.958 h -4.238 v 2.036 h -2.082 c -1.704,0 -3.086,-1.382 -3.086,-3.086 0,-1.705 1.382,-3.087 3.086,-3.087 h 2.082 v 2.037 h 4.162 L -33.604,73.703 C -53.799,69.819 -68.969,53.333 -68.969,33.581 V 27.23 C -57.396,23.843 -48.921,12.939 -48.921,0 c 0,-13.043 -8.612,-24.021 -20.33,-27.312 -3.665,-6.446 -5.753,-13.773 -5.753,-21.554 0,-12.495 5.356,-23.832 14.056,-32.193 0.006,-0.006 0.012,-0.012 0.018,-0.018 2.816,-2.704 5.982,-5.094 9.433,-7.111 0.004,-0.002 0.008,-0.005 0.012,-0.007 2.59,-1.513 5.339,-2.814 8.219,-3.878 0.005,-0.002 0.009,-0.003 0.013,-0.005 5.811,-2.146 12.149,-3.338 18.793,-3.338 27.914,0 50.544,20.841 50.544,46.55 0,7.781 -2.089,15.108 -5.754,21.554 C 8.613,-24.021 0,-13.043 0,0" /></g><g
           transform="translate(589.7855,310.4419)"
           id="g26"><path
             id="path28"
             style="fill:#ebd0b3;fill-opacity:1;fill-rule:nonzero;stroke:none"
             d="M 0,0 V -7.544 H -4.359 V 218.27 H 1.593 V 0 Z m 2.766,218.27 v 7.376 h -1.173 -5.952 -1.36 c -1.841,0 -3.334,-1.493 -3.334,-3.334 V 218.27 -46.269 h 4.694 v 16.093 H 4.359 V -28.16 -7.544 0 H 2.766 Z" /></g><g
           transform="translate(987.0699,648.3436)"
           id="g30"><path
             id="path32"
             style="fill:#ebd0b3;fill-opacity:1;fill-rule:nonzero;stroke:none"
             d="M 0,0 C 0,0.402 0.255,0.759 0.635,0.889 L 4.013,2.047 C 4.623,2.256 5.258,1.803 5.258,1.158 v -28.604 c 0,-0.65 -0.64,-1.106 -1.254,-0.896 L 0.64,-27.188 C 0.257,-27.057 0,-26.697 0,-26.293 Z m 14.271,1.158 c 0,0.645 0.634,1.098 1.244,0.889 L 18.893,0.889 C 19.273,0.759 19.528,0.402 19.528,0 v -26.293 c 0,-0.404 -0.257,-0.764 -0.639,-0.895 l -3.365,-1.154 c -0.614,-0.21 -1.253,0.246 -1.253,0.896 z m 48.415,-242.81 c 5.785,8.58 9.124,18.673 9.124,29.479 0,27.541 -21.657,44.387 -50.309,47.958 l -2.237,127.042 2.868,0.613 c 1.386,0.296 2.362,1.386 2.362,2.639 V 1.82 c 0,0.819 -0.421,1.595 -1.145,2.111 L 11.712,12.22 c -1.166,0.83 -2.73,0.83 -3.895,0 L -3.821,3.931 C -4.545,3.415 -4.965,2.639 -4.965,1.82 v -35.741 c 0,-1.253 0.975,-2.343 2.361,-2.639 l 2.868,-0.613 -2.236,-127.042 c -28.653,-3.571 -50.309,-20.417 -50.309,-47.958 0,-10.806 3.339,-20.899 9.123,-29.479 3.361,-4.986 -2.855,-15.148 -2.855,-15.148 0,0 -26.555,-36.601 -26.555,-61.578 0,-43.295 32.553,-70.591 82.332,-70.591 49.78,0 82.332,27.296 82.332,70.591 0,24.977 -26.555,61.578 -26.555,61.578 0,0 -6.216,10.162 -2.855,15.148" /></g><g
           transform="translate(821.5555,357.5773)"
           id="g34"><path
             id="path36"
             style="fill:#ebd0b3;fill-opacity:1;fill-rule:nonzero;stroke:none"
             d="m 0,0 h -1.232 l -14.956,-35.37 72.601,397.849 h 8.046 l -3.364,-15.606 3.418,-0.736 z m -173.91,301.534 -0.285,2.504 c -0.517,4.53 4.106,7.892 8.257,6.005 0.915,-0.416 1.707,-1.06 2.302,-1.87 l 0.962,-1.013 -4.318,-23.662 -6.544,16.542 c -0.19,0.479 -0.316,0.981 -0.374,1.494 m 38.82,-5.124 -11.584,-63.481 0.818,-2.851 -19.646,49.656 4.645,25.455 -0.132,0.199 4.493,-4.728 c 5.679,-5.975 14.301,-7.399 21.406,-4.25 m 5.667,3.852 5.913,5.866 c 7.293,7.234 15.108,13.821 23.342,19.747 l -26.189,-143.513 1.424,-4.122 27.266,149.419 c 9.996,6.956 20.598,12.932 31.653,17.877 l -1.181,-0.875 -39.139,-214.478 -38.949,98.446 12.601,69.052 c 1.153,0.727 2.25,1.58 3.259,2.581 m 43.308,-221.184 -18.73,47.341 40.089,219.681 c 9.442,4.144 19.214,7.524 29.216,10.123 z m 52.858,277.732 c 9.247,2.283 18.685,3.89 28.244,4.795 L -65.895,27.973 -84.625,75.314 Z m 46.566,5.669 h 11.382 l -70.367,-385.611 -18.73,47.341 0.101,0.553 61.503,337.034 c 5.34,0.445 10.713,0.683 16.111,0.683 M -24.938,-56.063 c -2.72,0 -5.064,-1.587 -6.174,-3.881 l -13.075,33.048 0.116,0.634 70.936,388.728 -0.055,0.013 H 54.237 L -20.016,-44.424 Z m 112.087,435.334 -20.572,4.435 c -1.957,0.421 -3.889,-0.51 -4.862,-2.145 H 5.71 c -51.826,0 -101.504,-20.708 -137.986,-57.519 l -9.407,-9.492 c -3.945,-3.98 -10.375,-3.995 -14.338,-0.032 l -5.192,5.192 c -5.645,5.646 -14.795,5.657 -20.455,0.027 -2.732,-2.719 -4.268,-6.414 -4.268,-10.268 0,-8.914 3.22,-19.51 5.928,-28.002 L -68.401,-72.538 h -1.031 c -10.207,0 -18.558,-8.351 -18.558,-18.558 v -6.186 H 32.639 v 6.186 c 0,10.207 -8.352,18.558 -18.559,18.558 H 9.49 v 9.614 c 0,3.789 -3.072,6.861 -6.862,6.861 v 0 L 10.869,0 h -0.817 l 64.125,344.053 2.792,-0.602 4.861,22.55 2.349,-0.507 c 2.45,-0.528 4.886,1.045 5.414,3.494 l 1.05,4.869 c 0.528,2.449 -1.044,4.886 -3.494,5.414" /></g><g
           transform="translate(394.0881,287.2504)"
           id="g38"><path
             id="path40"
             style="fill:#ebd0b3;fill-opacity:1;fill-rule:nonzero;stroke:none"
             d="M 0,0 V -7.829 H -4.523 V 226.52 H 1.653 L 1.653,0 Z m 2.871,226.52 v 7.655 H 1.653 -4.523 -6.062 c -1.841,0 -3.333,-1.492 -3.333,-3.333 V 226.52 -48.018 h 4.872 v 16.702 H 4.523 V -29.224 -7.829 0 H 2.871 Z" /></g><g
           transform="translate(333.0356,422.8541)"
           id="g42"><path
             id="path44"
             style="fill:#ebd0b3;fill-opacity:1;fill-rule:nonzero;stroke:none"
             d="m 0,0 v 27.534 c 0,4.911 3.981,8.891 8.891,8.891 h 11.889 2.453 c 2.335,0 2.924,3.24 0.739,4.062 -1.92,0.722 -3.192,2.559 -3.192,4.611 v 1.011 c 0,103.711 -62.344,96.745 -83.147,131.223 l -1.225,71.52 h 3.767 v -2.692 h 2.751 c 2.254,0 4.081,1.827 4.081,4.08 0,2.254 -1.827,4.081 -4.081,4.081 h -2.751 v -2.693 h -3.815 l -0.225,13.166 h 4.04 v -2.692 h 2.751 c 2.254,0 4.081,1.826 4.081,4.08 0,2.253 -1.827,4.08 -4.081,4.08 h -2.751 v -2.692 h -4.088 l -0.135,7.882 h 2.952 l 4.634,23.555 -15.979,11.584 -15.979,-11.584 4.634,-23.555 h 2.953 l -0.135,-7.882 h -4.088 v 2.692 h -2.752 c -2.253,0 -4.08,-1.827 -4.08,-4.08 0,-2.254 1.827,-4.08 4.08,-4.08 h 2.752 v 2.692 h 4.04 l -0.226,-13.166 h -3.814 v 2.693 h -2.752 c -2.253,0 -4.08,-1.827 -4.08,-4.081 0,-2.253 1.827,-4.08 4.08,-4.08 h 2.752 v 2.692 h 3.767 l -1.22,-71.232 c -20.799,-31.167 -83.153,-27.792 -83.153,-131.511 v -1.011 c 0,-2.052 -1.271,-3.889 -3.192,-4.611 -2.185,-0.822 -1.595,-4.062 0.739,-4.062 h 2.453 11.889 c 4.911,0 8.892,-3.98 8.892,-8.891 V 0 c 0,-13.811 -13.426,-25.579 -25.576,-30.284 v -40.83 c 0,-38.165 57.046,-58.317 84.098,-67.243 2.311,-0.763 4.669,-1.328 7.048,-1.701 v -6.077 h 3.849 v -8.301 c 0,-1.039 0.85,-1.89 1.89,-1.89 h 2.263 c 1.039,0 1.89,0.851 1.89,1.89 v 8.301 h 3.848 v 6.077 c 2.38,0.373 4.737,0.938 7.049,1.701 27.052,8.926 84.098,29.078 84.098,67.243 v 40.83 C 13.426,-25.579 0,-13.811 0,0" /></g><g
           transform="translate(509.8122,598.038)"
           id="g46"><path
             id="path48"
             style="fill:#ebd0b3;fill-opacity:1;fill-rule:nonzero;stroke:none"
             d="m 0,0 v 128.826 c 17.263,-2.008 32.34,-7.587 43.189,-20.411 -10e-4,-0.147 -0.008,-0.291 -0.008,-0.438 0,-7.356 1.931,-14.62 5.813,-20.868 C 54.48,78.281 57.624,67.847 57.55,56.671 57.344,25.602 31.036,0.18 0,0 m -94.374,56.671 c -0.074,11.176 3.07,21.61 8.556,30.438 3.882,6.248 5.813,13.512 5.813,20.868 0,0.147 -0.007,0.291 -0.008,0.438 10.849,12.824 25.926,18.403 43.189,20.411 L -36.824,0 C -67.86,0.18 -94.168,25.602 -94.374,56.671 M -0.898,-0.008 h -0.599 -7.484 v 129.569 c 2.74,-0.138 5.435,-0.348 8.083,-0.636 z m -26.944,0 h -7.485 -0.599 v 128.933 c 2.648,0.288 5.343,0.498 8.084,0.636 z m 8.981,0 h -8.083 v 129.609 c 2.658,0.119 5.353,0.177 8.083,0.183 z m 0.898,0 v 129.792 c 2.73,-0.006 5.426,-0.064 8.083,-0.183 V -0.008 Z m 67.888,100.781 c -0.513,1.632 -0.892,3.339 -1.145,5.099 h 0.155 c -0.06,0.085 -0.123,0.164 -0.183,0.248 -0.202,1.483 -0.322,2.999 -0.322,4.551 0,14.247 7.041,26.022 18.508,27.885 1.818,0.296 3.187,1.805 3.187,3.648 v 0.202 c -14.577,0 -25.097,-13.004 -26.718,-29.854 -15.104,15.68 -37.197,20.236 -61.819,20.236 -24.622,0 -46.715,-4.556 -61.818,-20.236 -1.622,16.85 -12.142,29.854 -26.719,29.854 v -0.202 c 0,-1.843 1.369,-3.352 3.187,-3.648 11.467,-1.863 18.509,-13.638 18.509,-27.885 0,-1.552 -0.121,-3.068 -0.323,-4.551 -0.06,-0.084 -0.123,-0.163 -0.182,-0.248 h 0.154 c -0.253,-1.76 -0.632,-3.467 -1.145,-5.099 -1.158,-3.69 -3.11,-7.09 -5.591,-10.057 -9.494,-11.353 -15.196,-25.982 -15.137,-41.953 0.117,-32.137 23.936,-58.547 54.649,-63.873 -0.645,-0.573 -1.061,-1.398 -1.061,-2.324 v -0.259 c 0,-1.716 1.405,-3.121 3.121,-3.121 h -3.566 c -2.595,0 -4.719,-2.475 -4.719,-5.501 h -1.235 c -3.026,0 -5.501,-2.475 -5.501,-5.501 h 94.754 c 0,3.026 -2.475,5.501 -5.501,5.501 h -1.235 c 0,3.026 -2.123,5.501 -4.719,5.501 h -3.566 c 1.716,0 3.121,1.405 3.121,3.121 v 0.259 c 0,0.926 -0.416,1.751 -1.061,2.324 30.713,5.326 54.532,31.736 54.65,63.873 0.058,15.971 -5.644,30.6 -15.138,41.953 -2.481,2.967 -4.433,6.367 -5.591,10.057" /></g><g
           transform="translate(1248.1926,383.4587)"
           id="g50"><path
             id="path52"
             style="fill:#ebd0b3;fill-opacity:1;fill-rule:nonzero;stroke:none"
             d="m 0,0 c 0,0 -5.61,9.171 -2.576,13.671 5.22,7.744 8.233,16.853 8.233,26.606 0,4.682 -0.693,9.021 -1.992,13.003 -3.685,11.293 -15.939,16.873 -27.377,13.667 -1.403,-0.394 -2.906,-0.55 -4.462,-0.423 -5.179,0.422 -9.62,4.122 -11.051,9.094 l -1.803,149.67 h 0.612 l 10.528,18.235 -13.526,32.085 h -15.06 L -72,243.523 -61.472,225.288 h 1.82 L -61.36,83.511 c -25.648,-3.337 -44.977,-18.515 -44.977,-43.234 0,-9.753 3.013,-18.862 8.234,-26.606 C -95.07,9.171 -100.68,0 -100.68,0 c 0,0 -23.966,-33.033 -23.966,-55.576 0,-39.075 29.379,-63.71 74.306,-63.71 44.927,0 74.307,24.635 74.307,63.71 C 23.967,-33.033 0,0 0,0" /></g><g
           transform="translate(522.7773,379.5887)"
           id="g54"><path
             id="path56"
             style="fill:#ab6829;fill-opacity:1;fill-rule:nonzero;stroke:none"
             d="m 0,0 c 0,12.939 8.475,23.843 20.049,27.23 v 6.351 c 0,22.639 -19.928,40.992 -44.509,40.992 -24.582,0 -44.509,-18.353 -44.509,-40.992 V 27.23 C -57.396,23.843 -48.921,12.939 -48.921,0 c 0,-13.043 -8.612,-24.021 -20.33,-27.312 -3.665,-6.446 -5.753,-13.773 -5.753,-21.554 0,-25.709 22.629,-46.55 50.544,-46.55 27.914,0 50.544,20.841 50.544,46.55 0,7.781 -2.089,15.108 -5.754,21.554 C 8.613,-24.021 0,-13.043 0,0" /></g><path
           id="path58"
           style="fill:#121112;fill-opacity:1;fill-rule:nonzero;stroke:none"
           d="m 509.796,503.952 h -5.898 v 2.1 h 5.898 z" /><g
           transform="translate(511.8773,508.0887)"
           id="g60"><path
             id="path62"
             style="fill:#29282a;fill-opacity:1;fill-rule:nonzero;stroke:none"
             d="M 0,0 H -2.082 V -6.173 H 0 c 1.704,0 3.086,1.382 3.086,3.087 C 3.086,-1.382 1.704,0 0,0" /></g><path
           id="path64"
           style="fill:#121112;fill-opacity:1;fill-rule:nonzero;stroke:none"
           d="m 509.796,516.011 h -5.898 v 2.1 h 5.898 z" /><g
           transform="translate(511.8773,520.147)"
           id="g66"><path
             id="path68"
             style="fill:#29282a;fill-opacity:1;fill-rule:nonzero;stroke:none"
             d="M 0,0 H -2.082 V -6.173 H 0 c 1.704,0 3.086,1.382 3.086,3.087 C 3.086,-1.382 1.704,0 0,0" /></g><path
           id="path70"
           style="fill:#121112;fill-opacity:1;fill-rule:nonzero;stroke:none"
           d="m 486.838,503.952 h 5.898 v 2.1 h -5.898 z" /><g
           transform="translate(484.7565,508.0887)"
           id="g72"><path
             id="path74"
             style="fill:#29282a;fill-opacity:1;fill-rule:nonzero;stroke:none"
             d="M 0,0 H 2.081 V -6.173 H 0 c -1.705,0 -3.086,1.382 -3.086,3.087 C -3.086,-1.382 -1.705,0 0,0" /></g><path
           id="path76"
           style="fill:#121112;fill-opacity:1;fill-rule:nonzero;stroke:none"
           d="m 486.838,516.011 h 5.898 v 2.1 h -5.898 z" /><g
           transform="translate(484.7565,520.147)"
           id="g78"><path
             id="path80"
             style="fill:#29282a;fill-opacity:1;fill-rule:nonzero;stroke:none"
             d="M 0,0 H 2.081 V -6.173 H 0 c -1.705,0 -3.086,1.382 -3.086,3.087 C -3.086,-1.382 -1.705,0 0,0" /></g><g
           transform="translate(509.1738,405.7829)"
           id="g82"><path
             id="path84"
             style="fill:#29282a;fill-opacity:1;fill-rule:nonzero;stroke:none"
             d="m 0,0 h -21.714 l 4.321,119.794 h 13.072 z" /></g><g
           transform="translate(512.1913,546.0292)"
           id="g86"><path
             id="path88"
             style="fill:#ab6829;fill-opacity:1;fill-rule:nonzero;stroke:none"
             d="M 0,0 -13.874,10.058 -27.749,0 l 4.024,-20.452 h 19.702 z" /></g><g
           transform="translate(501.3071,297.2488)"
           id="g90"><path
             id="path92"
             style="fill:#29282a;fill-opacity:1;fill-rule:nonzero;stroke:none"
             d="m 0,0 h -5.98 l -7.476,33.193 H 7.475 Z" /></g><path
           id="path94"
           style="fill:#fbd2a6;fill-opacity:1;fill-rule:nonzero;stroke:none"
           d="m 508.783,351.229 h -20.931 v -4.023 h 20.931 z" /><path
           id="path96"
           style="fill:#404041;fill-opacity:1;fill-rule:nonzero;stroke:none"
           d="M 509.174,399.594 H 487.46 v 6.189 h 21.714 z" /><g
           transform="translate(470.3739,318.0364)"
           id="g98"><path
             id="path100"
             style="fill:#29282a;fill-opacity:1;fill-rule:nonzero;stroke:none"
             d="m 0,0 h -20.685 c 4.561,-14.856 16.92,-26.686 32.755,-31.508 V -12.07 C 12.07,-5.432 6.639,0 0,0" /></g><g
           transform="translate(469.7805,328.574)"
           id="g102"><path
             id="path104"
             style="fill:#231f20;fill-opacity:1;fill-rule:nonzero;stroke:none"
             d="M 0,0 C -0.602,0 -1.208,0.125 -1.782,0.375 -3.32,1.048 -4.352,2.628 -4.35,4.307 -4.347,6.365 -2.958,8.119 -0.972,8.574 0.471,8.905 1.951,8.1 2.396,6.743 2.613,6.077 2.843,4.432 0.272,3.54 L -0.283,5.142 C 0.991,5.584 0.846,6.027 0.784,6.216 0.612,6.74 -0.005,7.058 -0.594,6.921 -1.805,6.644 -2.653,5.568 -2.655,4.304 -2.656,3.29 -2.032,2.336 -1.103,1.929 -0.337,1.595 0.483,1.616 1.205,1.988 1.917,2.355 2.42,3.015 2.585,3.798 l 7.137,34.04 c 0.269,1.285 1.093,2.367 2.262,2.969 1.168,0.603 2.54,0.64 3.763,0.105 1.538,-0.673 2.571,-2.252 2.568,-3.932 -0.002,-2.057 -1.391,-3.813 -3.378,-4.267 -1.446,-0.331 -2.923,0.474 -3.367,1.831 -0.218,0.666 -0.447,2.312 2.123,3.204 l 0.556,-1.602 c -1.274,-0.442 -1.129,-0.885 -1.067,-1.074 0.171,-0.524 0.789,-0.839 1.377,-0.706 1.212,0.277 2.059,1.353 2.061,2.616 10e-4,1.015 -0.623,1.97 -1.552,2.376 -0.765,0.335 -1.584,0.314 -2.308,-0.058 -0.712,-0.367 -1.215,-1.027 -1.379,-1.811 L 4.244,3.45 C 3.974,2.165 3.15,1.082 1.982,0.481 1.362,0.161 0.683,0 0,0" /></g><g
           transform="translate(526.8533,328.574)"
           id="g106"><path
             id="path108"
             style="fill:#231f20;fill-opacity:1;fill-rule:nonzero;stroke:none"
             d="M 0,0 C -0.683,0 -1.361,0.161 -1.982,0.481 -3.15,1.082 -3.974,2.165 -4.244,3.449 l -7.137,34.041 c -0.164,0.783 -0.667,1.443 -1.379,1.81 -0.723,0.372 -1.542,0.393 -2.308,0.058 -0.929,-0.406 -1.553,-1.361 -1.552,-2.375 0.002,-1.264 0.849,-2.34 2.061,-2.617 0.59,-0.133 1.206,0.182 1.377,0.706 0.062,0.189 0.207,0.632 -1.067,1.074 l 0.556,1.602 c 2.57,-0.892 2.341,-2.538 2.123,-3.204 -0.444,-1.357 -1.919,-2.162 -3.367,-1.831 -1.987,0.454 -3.376,2.21 -3.378,4.268 -0.003,1.679 1.03,3.258 2.568,3.931 1.224,0.534 2.596,0.497 3.763,-0.105 1.169,-0.602 1.993,-1.684 2.262,-2.969 L -2.584,3.798 C -2.42,3.015 -1.917,2.355 -1.205,1.988 -0.483,1.616 0.337,1.595 1.103,1.929 2.032,2.336 2.656,3.29 2.655,4.304 2.653,5.568 1.805,6.644 0.593,6.922 0.004,7.055 -0.612,6.739 -0.784,6.216 -0.846,6.027 -0.991,5.584 0.283,5.142 L -0.272,3.54 C -2.843,4.432 -2.613,6.077 -2.395,6.743 -1.952,8.099 -0.472,8.902 0.971,8.575 2.958,8.119 4.347,6.365 4.35,4.307 4.352,2.628 3.32,1.048 1.782,0.376 1.208,0.125 0.602,0 0,0" /></g><path
           id="path110"
           style="fill:#121112;fill-opacity:1;fill-rule:nonzero;stroke:none"
           d="m 494.268,330.442 h -0.955 v 195.135 h 0.955 z" /><path
           id="path112"
           style="fill:#121112;fill-opacity:1;fill-rule:nonzero;stroke:none"
           d="m 497.286,330.442 h -0.955 v 195.135 h 0.955 z" /><path
           id="path114"
           style="fill:#121112;fill-opacity:1;fill-rule:nonzero;stroke:none"
           d="m 500.303,330.442 h -0.955 v 195.135 h 0.955 z" /><path
           id="path116"
           style="fill:#121112;fill-opacity:1;fill-rule:nonzero;stroke:none"
           d="m 503.321,330.442 h -0.955 v 195.135 h 0.955 z" /><g
           transform="translate(565.4268,284.1728)"
           id="g118"><path
             id="path120"
             style="fill:#ab6829;fill-opacity:1;fill-rule:nonzero;stroke:none"
             d="m 0,0 h -4.694 v 268.582 c 0,1.841 1.492,3.333 3.333,3.333 H 0 Z" /></g><g
           transform="translate(569.7855,330.4419)"
           id="g122"><path
             id="path124"
             style="fill:#29282a;fill-opacity:1;fill-rule:nonzero;stroke:none"
             d="M 0,0 V -7.544 H -4.359 V -30.176 H 4.359 V -28.16 -7.544 0 Z" /></g><path
           id="path126"
           style="fill:#121112;fill-opacity:1;fill-rule:nonzero;stroke:none"
           d="m 571.378,556.088 h 1.173 V 330.442 h -1.173 z" /><g
           transform="translate(572.5516,548.7114)"
           id="g128"><path
             id="path130"
             style="fill:#29282a;fill-opacity:1;fill-rule:nonzero;stroke:none"
             d="m 0,0 h -11.819 v 4.043 c 0,1.841 1.493,3.333 3.334,3.333 H 0 Z" /></g><g
           transform="translate(1032.6108,411.5439)"
           id="g132"><path
             id="path134"
             style="fill:#d77d28;fill-opacity:1;fill-rule:nonzero;stroke:none"
             d="m 0,0 c 0,0 -6.216,10.162 -2.855,15.147 5.785,8.581 9.123,18.674 9.123,29.48 0,31.195 -27.778,48.681 -62.045,48.681 -34.266,0 -62.045,-17.486 -62.045,-48.681 0,-10.806 3.339,-20.899 9.123,-29.48 C -105.338,10.162 -111.553,0 -111.553,0 c 0,0 -26.556,-36.601 -26.556,-61.579 0,-43.295 32.553,-70.59 82.332,-70.59 49.78,0 82.332,27.295 82.332,70.59 C 26.555,-36.601 0,0 0,0" /></g><g
           transform="translate(999.6185,438.6938)"
           id="g136"><path
             id="path138"
             style="fill:#414042;fill-opacity:1;fill-rule:nonzero;stroke:none"
             d="m 0,0 c 0,-12.583 -10.201,-22.784 -22.784,-22.784 -12.584,0 -22.785,10.201 -22.785,22.784 0,12.583 10.201,22.784 22.785,22.784 C -10.201,22.784 0,12.583 0,0" /></g><g
           transform="translate(993.5004,347.8477)"
           id="g140"><path
             id="path142"
             style="fill:#414042;fill-opacity:1;fill-rule:nonzero;stroke:none"
             d="m 0,0 -33.291,-0.168 c -1.671,-0.008 -3.035,1.597 -3.047,3.588 l -0.005,0.742 c -0.013,1.995 1.336,3.62 3.01,3.628 L -0.042,7.958 C 1.63,7.966 2.993,6.361 3.006,4.37 L 3.01,3.628 C 3.023,1.633 1.674,0.008 0,0" /></g><g
           transform="translate(986.2517,635.8439)"
           id="g144"><path
             id="path146"
             style="fill:#414042;fill-opacity:1;fill-rule:nonzero;stroke:none"
             d="m 0,0 h -18.835 l -2.341,-132.954 H 2.341 Z" /></g><g
           transform="translate(985.9587,641.1553)"
           id="g148"><path
             id="path150"
             style="fill:#d77d28;fill-opacity:1;fill-rule:nonzero;stroke:none"
             d="m 0,0 -3.365,-1.154 c -0.614,-0.21 -1.253,0.246 -1.253,0.896 v 28.604 c 0,0.645 0.634,1.099 1.244,0.889 L 0.005,28.077 C 0.384,27.947 0.64,27.59 0.64,27.188 V 0.895 C 0.64,0.491 0.383,0.131 0,0 M -14.885,-1.154 -18.249,0 c -0.383,0.131 -0.64,0.491 -0.64,0.895 v 26.293 c 0,0.402 0.255,0.759 0.635,0.889 l 3.378,1.158 c 0.61,0.21 1.245,-0.244 1.245,-0.889 V -0.258 c 0,-0.65 -0.639,-1.106 -1.254,-0.896 M 4.46,31.119 -7.177,39.408 c -1.166,0.83 -2.73,0.83 -3.895,0 l -11.637,-8.289 c -0.725,-0.516 -1.145,-1.291 -1.145,-2.11 V -6.732 c 0,-1.254 0.975,-2.344 2.361,-2.64 l 10.946,-2.339 c 0.938,-0.201 1.907,-0.201 2.844,0 l 10.946,2.339 c 1.386,0.296 2.362,1.386 2.362,2.64 v 35.741 c 0,0.819 -0.421,1.594 -1.145,2.11" /></g><path
           id="path152"
           style="fill:#e6e7e8;fill-opacity:1;fill-rule:nonzero;stroke:none"
           d="m 977.45,355.617 h -1.231 v 274.71 h 1.231 z" /><path
           id="path154"
           style="fill:#e6e7e8;fill-opacity:1;fill-rule:nonzero;stroke:none"
           d="m 971.208,355.617 h -1.231 v 274.71 h 1.231 z" /><path
           id="path156"
           style="fill:#e6e7e8;fill-opacity:1;fill-rule:nonzero;stroke:none"
           d="m 983.691,355.617 h -1.231 v 274.71 h 1.231 z" /><g
           transform="translate(804.1838,321.5147)"
           id="g158"><path
             id="path160"
             style="fill:#dba109;fill-opacity:1;fill-rule:nonzero;stroke:none"
             d="M 0,0 8.24,56.063 H -3.861 L -27.566,0 c -3.79,0 -6.862,-3.072 -6.862,-6.862 v -9.613 h 6.862 30.659 3.769 v 9.613 C 6.862,-3.072 3.79,0 0,0 Z" /></g><g
           transform="translate(638.9919,685.34)"
           id="g162"><path
             id="path164"
             style="fill:#29282a;fill-opacity:1;fill-rule:nonzero;stroke:none"
             d="m 0,0 -4.518,-24.757 1.478,-3.829 4.746,26.012 z" /></g><g
           transform="translate(666.5272,674.3267)"
           id="g166"><path
             id="path168"
             style="fill:#29282a;fill-opacity:1;fill-rule:nonzero;stroke:none"
             d="m 0,0 -11.646,-63.82 1.33,-4.636 L 2.38,1.115 Z" /></g><g
           transform="translate(701.5396,704.2874)"
           id="g170"><path
             id="path172"
             style="fill:#29282a;fill-opacity:1;fill-rule:nonzero;stroke:none"
             d="m 0,0 -26.341,-144.348 1.424,-4.122 L 2.441,1.454 Z" /></g><g
           transform="translate(734.3605,722.2388)"
           id="g174"><path
             id="path176"
             style="fill:#29282a;fill-opacity:1;fill-rule:nonzero;stroke:none"
             d="m 0,0 -39.222,-214.935 1.569,-3.325 L 2.516,1.862 Z" /></g><g
           transform="translate(766.0856,734.1851)"
           id="g178"><path
             id="path180"
             style="fill:#29282a;fill-opacity:1;fill-rule:nonzero;stroke:none"
             d="m 0,0 -50.797,-278.364 1.625,-3.02 51.455,281.97 z" /></g><g
           transform="translate(796.6931,740.0072)"
           id="g182"><path
             id="path184"
             style="fill:#29282a;fill-opacity:1;fill-rule:nonzero;stroke:none"
             d="m 0,0 -61.093,-334.786 -5.105,-27.975 2.106,-0.384 4.649,25.477 61.555,337.319 z" /></g><g
           transform="translate(826.3312,740.5175)"
           id="g186"><path
             id="path188"
             style="fill:#29282a;fill-opacity:1;fill-rule:nonzero;stroke:none"
             d="m 0,0 -70.583,-386.79 -3.782,-20.725 2.106,-0.384 3.412,18.696 L 2.09,-0.474 Z" /></g><g
           transform="translate(855.9083,740.6927)"
           id="g190"><path
             id="path192"
             style="fill:#29282a;fill-opacity:1;fill-rule:nonzero;stroke:none"
             d="m 0,0 -74.976,-410.865 4.13,10.708 L 2.09,-0.473 Z" /></g><g
           transform="translate(834.1941,280.2953)"
           id="g194"><path
             id="path196"
             style="fill:#c9790e;fill-opacity:1;fill-rule:nonzero;stroke:none"
             d="m 0,0 v 6.186 c 0,10.207 -8.351,18.558 -18.558,18.558 h -83.512 c -10.207,0 -18.559,-8.351 -18.559,-18.558 l 0,-6.186 z" /></g><g
           transform="translate(876.3182,724.7712)"
           id="g198"><path
             id="path200"
             style="fill:#edca05;fill-opacity:1;fill-rule:nonzero;stroke:none"
             d="M 0,0 H -10.052 L -74.763,-347.194 H -64.71 Z" /></g><g
           transform="translate(672.1324,677.8389)"
           id="g202"><path
             id="path204"
             style="fill:#edca05;fill-opacity:1;fill-rule:nonzero;stroke:none"
             d="m 0,0 5.914,5.866 c 36.387,36.097 85.564,56.351 136.819,56.351 h 56.268 V 81.299 H 135.133 C 83.307,81.299 33.629,60.591 -2.853,23.781 l -9.407,-9.492 c -3.945,-3.981 -10.375,-3.995 -14.338,-0.032 l -5.192,5.191 c -5.645,5.646 -14.795,5.658 -20.455,0.027 -2.732,-2.718 -4.268,-6.413 -4.268,-10.267 0,-8.914 3.22,-19.51 5.928,-28.003 L 61.022,-372.799 h 42.272 L -44.113,-0.222 c -0.19,0.48 -0.315,0.982 -0.374,1.494 l -0.285,2.504 c -0.517,4.531 4.106,7.892 8.257,6.005 0.915,-0.416 1.708,-1.06 2.302,-1.87 l 7.14,-7.513 C -19.756,-7.3 -7.54,-7.48 0,0" /></g><g
           transform="translate(862.6508,724.4507)"
           id="g206"><path
             id="path208"
             style="fill:#dba109;fill-opacity:1;fill-rule:nonzero;stroke:none"
             d="m 0,0 15.874,-3.422 5.34,24.774 -15.873,3.422 z" /></g><g
           transform="translate(868.1324,761.2828)"
           id="g210"><path
             id="path212"
             style="fill:#dba109;fill-opacity:1;fill-rule:nonzero;stroke:none"
             d="m 0,0 20.572,-4.435 c 2.45,-0.528 4.022,-2.964 3.494,-5.414 l -1.05,-4.868 c -0.528,-2.45 -2.964,-4.022 -5.414,-3.494 l -20.572,4.435 c -2.449,0.528 -4.022,2.964 -3.494,5.414 l 1.05,4.868 C -4.886,-1.044 -2.45,0.528 0,0" /></g><g
           transform="translate(369.5647,259.2323)"
           id="g214"><path
             id="path216"
             style="fill:#ab6829;fill-opacity:1;fill-rule:nonzero;stroke:none"
             d="m 0,0 h -4.871 v 278.86 c 0,1.841 1.492,3.333 3.333,3.333 l 1.538,0 z" /></g><g
           transform="translate(374.0881,307.2503)"
           id="g218"><path
             id="path220"
             style="fill:#805229;fill-opacity:1;fill-rule:nonzero;stroke:none"
             d="M 0,0 V -7.829 H -4.523 V -31.316 H 4.523 V -29.224 -7.829 0 Z" /></g><path
           id="path222"
           style="fill:#121112;fill-opacity:1;fill-rule:nonzero;stroke:none"
           d="m 375.741,541.425 h 1.218 V 307.25 h -1.218 z" /><g
           transform="translate(376.9587,533.7704)"
           id="g224"><path
             id="path226"
             style="fill:#805229;fill-opacity:1;fill-rule:nonzero;stroke:none"
             d="m 0,0 h -12.266 v 4.322 c 0,1.841 1.493,3.333 3.334,3.333 H 0 Z" /></g><g
           transform="translate(241.7262,286.5281)"
           id="g228"><path
             id="path230"
             style="fill:#edca05;fill-opacity:1;fill-rule:nonzero;stroke:none"
             d="m 0,0 h -2.263 c -1.039,0 -1.89,0.851 -1.89,1.89 v 8.808 c 0,1.04 0.851,1.89 1.89,1.89 H 0 c 1.04,0 1.89,-0.85 1.89,-1.89 V 1.89 C 1.89,0.851 1.04,0 0,0" /></g><path
           id="path232"
           style="fill:#29282a;fill-opacity:1;fill-rule:nonzero;stroke:none"
           d="m 247.465,296.719 h -13.74 v 6.447 h 13.74 z" /><g
           transform="translate(313.0356,442.854)"
           id="g234"><path
             id="path236"
             style="fill:#ab6829;fill-opacity:1;fill-rule:nonzero;stroke:none"
             d="m 0,0 v 27.534 c 0,4.911 3.981,8.891 8.891,8.891 h 11.889 2.453 c 2.335,0 2.924,3.24 0.739,4.062 -1.92,0.722 -3.192,2.559 -3.192,4.611 v 1.011 c 0,106.492 -65.74,96.284 -84.736,134.082 h -16.969 c -18.997,-34.002 -84.737,-27.59 -84.737,-134.082 v -1.011 c 0,-2.052 -1.271,-3.889 -3.192,-4.611 -2.185,-0.822 -1.595,-4.062 0.739,-4.062 h 2.453 11.889 c 4.911,0 8.891,-3.98 8.891,-8.891 V 0 c 0,-13.811 -13.426,-25.579 -25.575,-30.284 v -40.83 c 0,-38.165 57.046,-58.317 84.098,-67.243 9.046,-2.985 18.791,-2.985 27.837,0 27.052,8.926 84.098,29.078 84.098,67.243 v 40.83 C 13.426,-25.579 0,-13.811 0,0" /></g><g
           transform="translate(246.2328,336.5397)"
           id="g238"><path
             id="path240"
             style="fill:#29282a;fill-opacity:1;fill-rule:nonzero;stroke:none"
             d="m 0,0 h -11.276 l -2.221,37.521 -11.874,37.853 H 14.095 L 2.218,37.504 Z" /></g><g
           transform="translate(180.8639,401.286)"
           id="g242"><path
             id="path244"
             style="fill:#231f20;fill-opacity:1;fill-rule:nonzero;stroke:none"
             d="m 0,0 c -1.136,0 -2.278,0.236 -3.359,0.709 -2.902,1.267 -4.847,4.247 -4.843,7.411 0.004,3.883 2.624,7.191 6.369,8.048 2.725,0.618 5.511,-0.895 6.349,-3.452 C 4.927,11.46 5.361,8.356 0.514,6.675 l -1.048,3.019 c 2.403,0.834 2.129,1.67 2.012,2.026 -0.323,0.987 -1.486,1.58 -2.598,1.332 -2.285,-0.523 -3.882,-2.553 -3.885,-4.935 -0.003,-1.913 1.173,-3.713 2.926,-4.48 1.443,-0.632 2.989,-0.593 4.352,0.111 1.342,0.693 2.29,1.936 2.6,3.412 L 18.33,71.344 c 0.508,2.423 2.063,4.463 4.264,5.598 2.202,1.136 4.79,1.206 7.097,0.198 2.901,-1.268 4.847,-4.248 4.843,-7.412 -0.005,-3.882 -2.624,-7.19 -6.37,-8.047 -2.723,-0.62 -5.511,0.894 -6.349,3.451 -0.411,1.259 -0.842,4.36 4.003,6.042 l 1.047,-3.019 c -2.401,-0.834 -2.128,-1.671 -2.011,-2.028 0.323,-0.985 1.489,-1.581 2.598,-1.33 2.284,0.523 3.882,2.552 3.885,4.934 0.002,1.914 -1.174,3.714 -2.927,4.48 -1.444,0.634 -2.989,0.594 -4.351,-0.11 -1.343,-0.694 -2.29,-1.936 -2.6,-3.413 L 8.001,6.503 C 7.494,4.082 5.94,2.042 3.738,0.907 2.567,0.303 1.288,0 0,0" /></g><g
           transform="translate(304.4601,401.286)"
           id="g246"><path
             id="path248"
             style="fill:#231f20;fill-opacity:1;fill-rule:nonzero;stroke:none"
             d="M 0,0 C -1.289,0 -2.567,0.303 -3.738,0.907 -5.94,2.042 -7.495,4.082 -8.002,6.505 l -13.457,64.183 c -0.31,1.477 -1.258,2.719 -2.6,3.413 -1.362,0.699 -2.909,0.741 -4.353,0.11 -1.752,-0.766 -2.928,-2.566 -2.926,-4.48 0.003,-2.382 1.601,-4.411 3.887,-4.934 1.107,-0.251 2.274,0.345 2.597,1.33 0.116,0.357 0.39,1.194 -2.012,2.028 l 1.047,3.019 c 4.847,-1.682 4.414,-4.785 4.003,-6.042 -0.837,-2.557 -3.625,-4.08 -6.347,-3.451 -3.748,0.857 -6.367,4.165 -6.372,8.047 -0.004,3.164 1.942,6.144 4.843,7.412 2.307,1.01 4.894,0.938 7.098,-0.198 2.201,-1.135 3.755,-3.175 4.263,-5.598 L -4.873,7.16 C -4.564,5.684 -3.616,4.441 -2.273,3.748 -0.91,3.047 0.635,3.005 2.079,3.637 3.831,4.404 5.007,6.204 5.005,8.117 5.002,10.499 3.404,12.529 1.118,13.052 0.017,13.3 -1.155,12.707 -1.479,11.72 -1.595,11.364 -1.869,10.528 0.534,9.694 L -0.514,6.675 c -4.845,1.681 -4.414,4.783 -4.004,6.04 0.838,2.558 3.622,4.088 6.349,3.453 C 5.578,15.311 8.197,12.003 8.202,8.12 8.206,4.956 6.26,1.976 3.359,0.709 2.278,0.236 1.135,0 0,0" /></g><path
           id="path250"
           style="fill:#121112;fill-opacity:1;fill-rule:nonzero;stroke:none"
           d="m 253.21,691.706 h -7.797 v 2.776 h 7.797 z" /><g
           transform="translate(255.9619,697.1747)"
           id="g252"><path
             id="path254"
             style="fill:#29282a;fill-opacity:1;fill-rule:nonzero;stroke:none"
             d="M 0,0 H -2.752 V -8.161 H 0 c 2.253,0 4.08,1.827 4.08,4.081 C 4.08,-1.827 2.253,0 0,0" /></g><path
           id="path256"
           style="fill:#121112;fill-opacity:1;fill-rule:nonzero;stroke:none"
           d="m 253.21,707.648 h -7.797 v 2.776 h 7.797 z" /><g
           transform="translate(255.9619,713.1161)"
           id="g258"><path
             id="path260"
             style="fill:#29282a;fill-opacity:1;fill-rule:nonzero;stroke:none"
             d="M 0,0 H -2.752 V -8.161 H 0 c 2.253,0 4.08,1.827 4.08,4.081 C 4.08,-1.827 2.253,0 0,0" /></g><path
           id="path262"
           style="fill:#121112;fill-opacity:1;fill-rule:nonzero;stroke:none"
           d="m 227.98,691.706 h 7.797 v 2.776 h -7.797 z" /><g
           transform="translate(225.2278,697.1747)"
           id="g264"><path
             id="path266"
             style="fill:#29282a;fill-opacity:1;fill-rule:nonzero;stroke:none"
             d="M 0,0 H 2.752 V -8.161 H 0 c -2.253,0 -4.08,1.827 -4.08,4.081 C -4.08,-1.827 -2.253,0 0,0" /></g><path
           id="path268"
           style="fill:#121112;fill-opacity:1;fill-rule:nonzero;stroke:none"
           d="m 227.98,707.648 h 7.797 v 2.776 h -7.797 z" /><g
           transform="translate(225.2278,713.1161)"
           id="g270"><path
             id="path272"
             style="fill:#29282a;fill-opacity:1;fill-rule:nonzero;stroke:none"
             d="M 0,0 H 2.752 V -8.161 H 0 c -2.253,0 -4.08,1.827 -4.08,4.081 C -4.08,-1.827 -2.253,0 0,0" /></g><g
           transform="translate(252.923,488.577)"
           id="g274"><path
             id="path276"
             style="fill:#29282a;fill-opacity:1;fill-rule:nonzero;stroke:none"
             d="m 0,0 h -24.656 l 3.935,229.729 h 16.786 z" /></g><g
           transform="translate(256.5738,741.8607)"
           id="g278"><path
             id="path280"
             style="fill:#ab6829;fill-opacity:1;fill-rule:nonzero;stroke:none"
             d="M 0,0 -15.979,11.584 -31.958,0 l 4.634,-23.554 h 22.69 z" /></g><path
           id="path282"
           style="fill:#edca05;fill-opacity:1;fill-rule:nonzero;stroke:none"
           d="m 256.12,447.295 h -31.05 v 9.312 h 31.05 z" /><path
           id="path284"
           style="fill:#121112;fill-opacity:1;fill-rule:nonzero;stroke:none"
           d="m 235.772,411.913 h -1.138 v 306.393 h 1.138 z" /><path
           id="path286"
           style="fill:#121112;fill-opacity:1;fill-rule:nonzero;stroke:none"
           d="m 239.367,411.913 h -1.138 v 306.393 h 1.138 z" /><path
           id="path288"
           style="fill:#121112;fill-opacity:1;fill-rule:nonzero;stroke:none"
           d="m 242.961,411.913 h -1.138 v 306.393 h 1.138 z" /><path
           id="path290"
           style="fill:#121112;fill-opacity:1;fill-rule:nonzero;stroke:none"
           d="m 246.556,411.913 h -1.138 v 306.393 h 1.138 z" /><path
           id="path292"
           style="fill:#404041;fill-opacity:1;fill-rule:nonzero;stroke:none"
           d="m 471.849,617.935 h -0.898 v 130.903 h 0.898 z" /><path
           id="path294"
           style="fill:#404041;fill-opacity:1;fill-rule:nonzero;stroke:none"
           d="m 480.831,617.935 h -0.898 v 130.903 h 0.898 z" /><path
           id="path296"
           style="fill:#404041;fill-opacity:1;fill-rule:nonzero;stroke:none"
           d="m 489.812,617.935 h -0.898 v 130.903 h 0.898 z" /><path
           id="path298"
           style="fill:#404041;fill-opacity:1;fill-rule:nonzero;stroke:none"
           d="m 462.868,617.935 h -0.898 v 130.903 h 0.898 z" /><path
           id="path300"
           style="fill:#404041;fill-opacity:1;fill-rule:nonzero;stroke:none"
           d="m 453.886,617.935 h -0.898 v 130.903 h 0.898 z" /><g
           transform="translate(407.7624,723.9104)"
           id="g302"><path
             id="path304"
             style="fill:#dba109;fill-opacity:1;fill-rule:nonzero;stroke:none"
             d="m 0,0 c 14.484,19.362 37.598,23.914 63.638,23.914 26.04,0 49.153,-4.552 63.638,-23.914 h 3.708 C 116.058,21.11 91.459,26.915 63.638,26.915 35.817,26.915 11.217,21.11 -3.709,0 Z" /></g><g
           transform="translate(503.756,597.2244)"
           id="g306"><path
             id="path308"
             style="fill:#dba109;fill-opacity:1;fill-rule:nonzero;stroke:none"
             d="m 0,0 h -64.711 c -1.717,0 -3.121,1.404 -3.121,3.121 V 3.38 c 0,1.716 1.404,3.121 3.121,3.121 L 0,6.501 c 1.717,0 3.121,-1.405 3.121,-3.121 V 3.121 C 3.121,1.404 1.717,0 0,0" /></g><g
           transform="translate(545.3282,708.754)"
           id="g310"><path
             id="path312"
             style="fill:#edca05;fill-opacity:1;fill-rule:nonzero;stroke:none"
             d="m 0,0 c -2.481,2.967 -4.433,6.367 -5.591,10.057 -0.967,3.079 -1.496,6.414 -1.496,9.898 0,14.247 7.042,26.022 18.509,27.885 1.818,0.296 3.187,1.806 3.187,3.648 v 0.202 c -15.873,0 -26.944,-15.415 -26.944,-34.429 0,-7.356 1.931,-14.62 5.813,-20.868 5.486,-8.828 8.63,-19.262 8.556,-30.438 -0.206,-31.18 -26.7,-56.679 -57.88,-56.679 h -1.167 -33.83 -1.167 c -31.18,0 -57.674,25.499 -57.88,56.679 -0.074,11.176 3.07,21.61 8.556,30.438 3.882,6.248 5.813,13.512 5.813,20.868 0,19.014 -11.071,34.429 -26.944,34.429 v -0.202 c 0,-1.842 1.369,-3.352 3.187,-3.648 11.467,-1.863 18.509,-13.638 18.509,-27.885 0,-3.484 -0.529,-6.819 -1.496,-9.898 -1.158,-3.69 -3.11,-7.09 -5.591,-10.057 -9.494,-11.353 -15.196,-25.982 -15.138,-41.953 0.132,-36.021 30.034,-64.872 66.055,-64.872 h 6.096 33.83 6.096 c 36.021,0 65.923,28.851 66.055,64.872 C 15.196,-25.982 9.494,-11.353 0,0" /></g><g
           transform="translate(513.2762,591.7233)"
           id="g314"><path
             id="path316"
             style="fill:#dba109;fill-opacity:1;fill-rule:nonzero;stroke:none"
             d="m 0,0 h -83.752 c -3.026,0 -5.501,-2.475 -5.501,-5.501 H 5.501 C 5.501,-2.475 3.026,0 0,0" /></g><g
           transform="translate(507.3223,597.2244)"
           id="g318"><path
             id="path320"
             style="fill:#edca05;fill-opacity:1;fill-rule:nonzero;stroke:none"
             d="m 0,0 h -71.844 c -2.596,0 -4.719,-2.476 -4.719,-5.501 H 4.719 C 4.719,-2.476 2.595,0 0,0" /></g><g
           transform="translate(1228.1926,403.4587)"
           id="g322"><path
             id="path324"
             style="fill:#29282a;fill-opacity:1;fill-rule:nonzero;stroke:none"
             d="m 0,0 c 0,0 -5.61,9.171 -2.577,13.671 5.221,7.744 8.234,16.853 8.234,26.606 0,4.682 -0.693,9.021 -1.992,13.003 -3.685,11.293 -15.939,16.873 -27.377,13.667 -1.403,-0.394 -2.906,-0.55 -4.462,-0.423 -5.322,0.434 -9.875,4.325 -11.172,9.505 -0.012,0.048 -0.023,0.096 -0.035,0.144 -1.1,4.615 -5.076,7.973 -9.82,8.033 -0.379,0.005 -0.758,0.007 -1.139,0.007 -30.926,0 -55.997,-15.782 -55.997,-43.936 0,-9.753 3.013,-18.862 8.234,-26.606 C -95.07,9.171 -100.68,0 -100.68,0 c 0,0 -23.967,-33.033 -23.967,-55.576 0,-39.075 29.38,-63.71 74.307,-63.71 44.927,0 74.307,24.635 74.307,63.71 C 23.967,-33.033 0,0 0,0" /></g><g
           transform="translate(1186.6472,388.76)"
           id="g326"><path
             id="path328"
             style="fill:#6d6e70;fill-opacity:1;fill-rule:nonzero;stroke:none"
             d="m 0,0 h -17.589 c -1.512,0 -2.75,-1.238 -2.75,-2.75 v -1.158 c 0,-1.512 1.238,-2.75 2.75,-2.75 H 0 c 1.513,0 2.75,1.238 2.75,2.75 V -2.75 C 2.75,-1.238 1.513,0 0,0" /></g><g
           transform="translate(1194.2161,351.4013)"
           id="g330"><path
             id="path332"
             style="fill:#565759;fill-opacity:1;fill-rule:nonzero;stroke:none"
             d="m 0,0 -32.686,-0.165 c -1.641,-0.008 -2.98,1.568 -2.992,3.523 l -0.004,0.729 c -0.013,1.958 1.311,3.553 2.955,3.561 L -0.041,7.813 C 1.6,7.821 2.939,6.245 2.951,4.291 L 2.956,3.562 C 2.968,1.604 1.644,0.008 0,0" /></g><g
           transform="translate(1187.0992,634.1631)"
           id="g334"><path
             id="path336"
             style="fill:#404041;fill-opacity:1;fill-rule:nonzero;stroke:none"
             d="m 0,0 h -18.493 l -2.298,-190.731 H 2.298 Z" /></g><path
           id="path338"
           style="fill:#dbdbdb;fill-opacity:1;fill-rule:nonzero;stroke:none"
           d="m 1178.457,359.03 h -1.209 v 269.717 h 1.209 z" /><path
           id="path340"
           style="fill:#dbdbdb;fill-opacity:1;fill-rule:nonzero;stroke:none"
           d="m 1172.329,359.03 h -1.209 v 269.717 h 1.209 z" /><path
           id="path342"
           style="fill:#dbdbdb;fill-opacity:1;fill-rule:nonzero;stroke:none"
           d="m 1184.585,359.03 h -1.209 v 269.717 h 1.209 z" /><g
           transform="translate(1166.7206,628.7469)"
           id="g344"><path
             id="path346"
             style="fill:#29282a;fill-opacity:1;fill-rule:nonzero;stroke:none"
             d="M 0,0 -10.528,18.235 2.998,50.32 h 15.06 L 31.584,18.235 21.056,0 Z" /></g><g
           transform="translate(1228.9238,380.7408)"
           id="g348"><path
             id="path350"
             style="fill:#6d6e70;fill-opacity:1;fill-rule:nonzero;stroke:none"
             d="m 0,0 c 0,-2.591 -2.1,-4.691 -4.69,-4.691 -2.591,0 -4.691,2.1 -4.691,4.691 0,2.59 2.1,4.69 4.691,4.69 C -2.1,4.69 0,2.59 0,0" /></g><g
           transform="translate(1233.6144,359.2145)"
           id="g352"><path
             id="path354"
             style="fill:#6d6e70;fill-opacity:1;fill-rule:nonzero;stroke:none"
             d="m 0,0 c 0,-2.59 -2.1,-4.69 -4.691,-4.69 -2.59,0 -4.69,2.1 -4.69,4.69 0,2.591 2.1,4.691 4.69,4.691 C -2.1,4.691 0,2.591 0,0" /></g><g
           transform="translate(1152.5306,452.7836)"
           id="g356"><path
             id="path358"
             style="fill:#6d6e70;fill-opacity:1;fill-rule:nonzero;stroke:none"
             d="m 0,0 c 0,-2.381 -1.93,-4.312 -4.312,-4.312 -2.381,0 -4.311,1.931 -4.311,4.312 0,2.381 1.93,4.312 4.311,4.312 C -1.93,4.312 0,2.381 0,0" /></g></g></g></g></svg>